# xmcd CD database file
# Copyright (C) 2007 Ti Kan
# 
# Track frame offsets:
#     150
#     17901
#     35993
#     53808
#     70285
#     84023
#     103197
#     124156
#     142031
#     159835
#     178102
#     196535
#     212192
#     230500
# 
# Disc length: 3350 seconds
# 
# Revision: 1
# Processed by: cddbd v1.5.2PL0 Copyright (c) Steve Scherf et al.
# Submitted via: DiscPlay 4.0.4
# 
DISCID=c20d140e
DTITLE=Amanda Chapman - Crazy Or Brave
DYEAR=1900
DGENRE=
TTITLE0=Crazy or Brave
TTITLE1=Look Around
TTITLE2=Cafe Terrace At Night
TTITLE3=Life Is Good
TTITLE4=Fireball
TTITLE5=Walk Two Moons (based on the novel by Sharon Creech)
TTITLE6=Still Waters
TTITLE7=Why Aren't We?
TTITLE8=I Fell In Love With A Cowboy
TTITLE9=You Don't Know
TTITLE10=Is That Too Much To Ask?
TTITLE11=I Will Not Run
TTITLE12=The Butterfly Song
TTITLE13=God Gave Me You
EXTD=Submitted by ecto@cox.net
EXTT0=
EXTT1=
EXTT2=
EXTT3=
EXTT4=
EXTT5=
EXTT6=
EXTT7=
EXTT8=
EXTT9=
EXTT10=
EXTT11=
EXTT12=
EXTT13=
PLAYORDER=
